<svg xmlns="http://www.w3.org/2000/svg" width="24" height="24" fill="none" viewBox="0 0 24 24" id="discord-nitro"><path fill="url(#paint0_linear_1233_4494)" fill-rule="evenodd" d="M6 4C5.44772 4 5 4.44772 5 5C5 5.55228 5.44772 6 6 6H9.70835C9.20734 6.4422 8.76215 6.94617 8.38468 7.5H6C5.44772 7.5 5 7.94772 5 8.5C5 9.05228 5.44772 9.5 6 9.5H7.39838C7.18958 10.1353 7.05819 10.8056 7.01537 11.5H4C3.44772 11.5 3 11.9477 3 12.5C3 13.0523 3.44772 13.5 4 13.5H7.1404C7.84251 17.2013 11.0944 20 15 20C19.4183 20 23 16.4183 23 12C23 7.58172 19.4183 4 15 4H6ZM15 6C11.6863 6 9 8.68629 9 12C9 15.3137 11.6863 18 15 18C18.3137 18 21 15.3137 21 12C21 8.68629 18.3137 6 15 6ZM2 7.5C1.44772 7.5 1 7.94772 1 8.5C1 9.05228 1.44772 9.5 2 9.5H3.5C4.05228 9.5 4.5 9.05228 4.5 8.5C4.5 7.94772 4.05228 7.5 3.5 7.5H2ZM13 8C12.6656 8 12.3534 8.1671 12.1679 8.4453L10.1679 11.4453C9.94402 11.7812 9.94402 12.2188 10.1679 12.5547L12.1679 15.5547C12.3534 15.8329 12.6656 16 13 16H17C17.3344 16 17.6466 15.8329 17.8321 15.5547L19.8321 12.5547C20.056 12.2188 20.056 11.7812 19.8321 11.4453L17.8321 8.4453C17.6466 8.1671 17.3344 8 17 8H13ZM12.2019 12L13.5352 10H16.4648L17.7981 12L16.4648 14H13.5352L12.2019 12Z" clip-rule="evenodd"></path><defs><linearGradient id="paint0_linear_1233_4494" x1="12" x2="12" y1="4" y2="20" gradientUnits="userSpaceOnUse"><stop stop-color="#AB58FF"></stop><stop offset="1" stop-color="#6A3093"></stop></linearGradient></defs></svg>